<?xml version="1.0" standalone="no"?>
<!DOCTYPE svg PUBLIC "-//W3C//DTD SVG 20010904//EN"
 "http://www.w3.org/TR/2001/REC-SVG-20010904/DTD/svg10.dtd">
<svg version="1.0" xmlns="http://www.w3.org/2000/svg"
 width="800.000000pt" height="601.000000pt" viewBox="0 0 800.000000 601.000000"
 preserveAspectRatio="xMidYMid meet">

<g transform="translate(0.000000,601.000000) scale(0.100000,-0.100000)"
fill="#000000" stroke="none">
<path d="M27 6002 l-27 -3 0 -3000 0 -2999 4000 0 4000 0 0 3000 c0 2393 -3
3000 -12 3000 -2969 3 -7941 4 -7961 2z m7961 -2999 l-3 -2988 -3982 -3 -3983
-2 0 2990 0 2990 3985 0 3985 0 -2 -2987z"/>
<path d="M4485 4464 c-165 -10 -379 -60 -475 -110 -60 -31 -48 -30 62 6 51 17
114 37 139 45 106 34 200 40 659 40 414 0 819 -9 895 -20 17 -2 87 -7 158 -10
280 -13 530 -115 722 -295 l82 -77 69 -1 c65 -2 151 -6 357 -18 81 -4 90 -3
132 21 52 31 85 29 102 -5 17 -33 16 -123 -1 -164 -15 -37 -60 -76 -86 -76
-13 0 -17 -6 -13 -20 5 -18 1 -20 -33 -19 l-39 1 30 14 c29 14 29 15 4 10 -19
-4 -29 -1 -33 10 -7 17 20 158 36 187 5 10 7 23 5 30 -2 7 -10 -1 -18 -17 -13
-27 -16 -28 -64 -23 -115 13 -406 30 -411 24 -4 -4 19 -38 50 -77 43 -53 72
-78 118 -101 83 -42 192 -68 306 -73 164 -7 229 -36 271 -120 23 -45 24 -60
23 -178 -1 -97 2 -142 14 -179 23 -71 14 -167 -25 -261 -25 -59 -31 -87 -31
-148 0 -41 -4 -80 -8 -87 -4 -6 -7 89 -7 210 0 180 -4 234 -18 286 -32 116
-72 145 -144 101 -76 -46 -151 -193 -244 -480 -62 -189 -64 -198 -64 -300 0
-122 -9 -144 -78 -184 -24 -14 -116 -50 -205 -81 -89 -30 -215 -76 -280 -101
-184 -72 -523 -243 -682 -343 -166 -105 -303 -176 -319 -167 -8 5 -6 16 4 36
24 46 36 314 23 512 -20 296 -99 462 -242 508 -91 29 -253 -21 -347 -108 -171
-157 -362 -558 -439 -920 -22 -103 -23 -161 -4 -305 5 -43 2 -54 -25 -98 l-31
-50 20 -39 c25 -48 25 -49 0 -43 -20 5 -771 -258 -753 -264 12 -4 235 69 505
166 125 44 233 81 241 81 20 0 37 -21 37 -47 0 -51 -140 -113 -380 -168 -130
-29 -105 -33 33 -4 185 38 323 92 350 136 22 36 37 -30 17 -81 -14 -37 -50
-51 -195 -74 -258 -43 -434 -55 -755 -56 -375 0 -586 25 -831 99 -46 14 -174
45 -284 69 -821 182 -1264 295 -1640 421 -292 97 -405 157 -405 214 0 35 46
87 124 138 43 29 83 54 89 56 7 2 2 21 -11 51 -22 46 -52 147 -52 174 0 8 16
-17 35 -56 47 -93 108 -159 199 -216 96 -60 125 -61 95 -3 -39 74 -142 196
-235 278 l-104 93 0 50 c0 28 3 61 6 74 6 22 7 22 28 -6 39 -54 108 -102 143
-102 12 1 8 5 -12 14 -16 8 -50 35 -75 61 l-45 47 64 -46 c44 -32 72 -46 90
-44 22 3 27 11 43 83 21 98 22 145 4 190 -17 41 -93 125 -113 125 -20 0 56
108 133 189 62 65 63 65 54 31 -19 -70 17 -124 90 -135 l35 -5 -34 13 c-51 20
-84 63 -77 100 17 84 96 160 288 277 l88 53 107 -6 c102 -5 235 -36 247 -56 9
-14 -16 -35 -209 -175 -319 -229 -318 -236 3 -15 119 82 220 156 225 164 24
43 -56 81 -197 94 l-71 6 130 48 c498 185 752 247 1120 277 180 15 293 34 351
59 26 12 59 21 75 21 42 0 44 17 2 18 -19 1 -58 -9 -87 -23 -57 -27 -135 -41
-281 -50 -348 -22 -857 -117 -1125 -210 -263 -92 -519 -249 -711 -436 -283
-276 -380 -631 -256 -939 l25 -60 -36 -17 c-81 -39 -163 -114 -175 -162 -8
-32 15 -85 46 -105 34 -23 244 -108 349 -142 48 -15 85 -31 83 -34 -2 -4 -37
-12 -77 -20 -146 -26 -259 -76 -273 -121 -10 -29 20 -67 82 -105 61 -36 653
-236 975 -328 506 -146 1009 -253 1428 -306 474 -59 931 -51 1238 21 155 36
335 108 426 171 59 41 156 122 156 130 0 4 -15 8 -32 8 -76 0 -278 68 -278 92
0 6 6 8 13 5 239 -106 400 -112 577 -24 61 30 178 148 224 225 57 94 102 213
131 342 15 63 30 129 35 145 l8 30 1 -30 c1 -40 -32 -185 -62 -276 -31 -89
-65 -165 -108 -239 l-32 -55 98 93 c496 470 1027 802 1480 927 66 18 113 35
105 38 -8 3 -37 10 -64 17 -82 19 -177 75 -176 104 0 6 5 3 11 -6 15 -26 86
-64 154 -83 83 -22 301 -32 360 -15 131 37 221 208 241 460 6 75 10 87 33 107
24 19 26 28 29 110 3 67 9 100 28 139 35 77 50 181 34 246 -7 29 -15 123 -19
208 -7 167 -13 191 -68 241 -36 34 -64 48 -121 63 -56 14 -61 26 -19 46 66 31
100 164 61 246 -23 49 -55 54 -120 20 l-52 -28 -251 13 -251 12 -72 71 c-171
168 -423 275 -698 296 -276 21 -556 31 -975 34 -242 2 -467 2 -500 0z m2496
-494 c73 -5 157 -12 186 -16 l52 -5 -10 -29 c-13 -36 -41 -41 -210 -42 l-124
0 -37 43 c-21 24 -38 47 -38 52 0 9 19 9 181 -3z m221 -150 l3 -50 -35 0 c-52
0 -146 27 -215 61 l-60 29 60 -3 c50 -3 104 -1 227 11 13 2 17 -9 20 -48z
m-5487 -454 c-161 -54 -263 -93 -388 -147 -38 -17 -80 -29 -94 -27 -21 2 -7
12 71 51 110 54 222 93 411 142 184 48 184 42 0 -19z m5653 -61 c34 -29 69
-104 77 -166 5 -41 4 -40 -13 16 -31 100 -70 156 -117 168 -19 4 -19 5 2 6 12
0 35 -10 51 -24z m-110 -62 c-52 -56 -100 -190 -113 -318 -3 -33 -8 -75 -11
-93 -2 -18 -5 -99 -5 -180 -2 -187 23 -294 82 -353 20 -20 45 -27 34 -9 -3 6
0 10 8 10 26 0 68 58 91 126 41 122 51 199 51 394 0 164 -3 193 -23 257 -24
76 -59 117 -90 106 -15 -6 -14 -3 2 15 26 29 47 28 79 -6 53 -56 80 -174 79
-358 0 -175 -39 -369 -94 -477 -11 -23 -19 -44 -17 -47 2 -3 -13 -14 -33 -25
-68 -36 -118 5 -159 134 -51 158 -22 571 52 731 26 57 73 120 88 120 2 0 -7
-12 -21 -27z m47 -79 c101 -39 101 -584 -1 -785 -27 -55 -56 -69 -85 -43 -19
17 -27 50 -10 40 16 -10 58 33 79 81 39 90 56 207 56 373 0 117 -4 169 -17
212 -18 60 -54 97 -79 82 -14 -9 10 26 27 38 12 9 10 9 30 2z m-29 -62 c21
-14 32 -47 44 -131 32 -215 -31 -571 -101 -571 -32 0 -51 60 -57 183 l-5 109
22 -14 c20 -11 24 -11 37 6 19 26 18 110 -1 126 -19 16 -45 6 -45 -17 0 -15 1
-15 13 2 11 14 16 15 22 5 5 -8 4 -15 -2 -17 -5 -2 -8 -14 -6 -28 4 -20 2 -23
-16 -18 -17 4 -21 13 -21 42 1 97 34 241 70 299 20 33 27 37 46 24z m-2108
-400 c75 -39 147 -114 187 -196 37 -74 76 -211 74 -255 l-2 -26 -4 25 c-20
122 -97 310 -133 330 -11 6 -20 17 -20 24 0 18 -71 73 -132 101 -29 14 -46 25
-38 25 8 0 39 -13 68 -28z m2027 -2 c3 -5 1 -10 -4 -10 -6 0 -11 5 -11 10 0 6
2 10 4 10 3 0 8 -4 11 -10z m-2265 -24 c0 -3 -15 -14 -32 -26 l-33 -22 30 26
c31 27 35 29 35 22z m163 -23 c-7 -2 -21 -2 -30 0 -10 3 -4 5 12 5 17 0 24 -2
18 -5z m54 1 c-3 -3 -12 -4 -19 -1 -8 3 -5 6 6 6 11 1 17 -2 13 -5z m-182 -46
c-68 -45 -128 -125 -195 -263 -50 -101 -63 -141 -85 -249 -79 -399 -72 -733
20 -921 34 -71 88 -131 149 -165 28 -17 46 -30 40 -30 -20 0 -99 57 -136 98
-97 108 -139 265 -139 517 -1 202 39 491 88 640 21 67 77 178 123 245 51 74
144 160 174 160 5 0 -12 -14 -39 -32z m-4304 -19 l24 -20 -27 16 c-35 22 -66
16 -90 -16 -48 -64 -38 -142 29 -212 29 -31 32 -36 12 -23 -35 22 -77 83 -85
124 -4 21 0 48 11 77 27 73 80 95 126 54z m39 -54 c0 -3 -15 -19 -34 -36 -19
-16 -37 -40 -39 -52 -3 -16 -5 -14 -5 8 -1 17 4 37 11 46 19 24 67 49 67 34z
m4474 -9 c76 -32 154 -151 191 -291 29 -110 40 -274 27 -409 -35 -375 -198
-685 -383 -729 -46 -11 -123 19 -163 63 -40 45 -48 65 -13 33 36 -33 67 -45
118 -45 107 0 197 79 280 247 212 432 117 1095 -157 1095 -42 0 -112 -30 -140
-61 -11 -12 4 -6 42 16 51 31 66 36 106 32 158 -14 258 -254 245 -587 -15
-365 -159 -672 -339 -721 -70 -19 -156 30 -208 118 l-19 32 44 -34 c88 -67
166 -56 255 35 122 125 193 347 193 605 -1 200 -38 336 -118 424 -66 73 -147
79 -230 16 -25 -19 -45 -32 -45 -28 0 4 -7 -2 -16 -13 -14 -18 -15 -18 -4 4 6
12 15 20 19 17 5 -2 21 11 35 30 15 19 24 35 19 35 -20 0 78 85 122 106 57 27
92 30 139 10z m-111 -140 c240 -102 229 -806 -17 -1051 -138 -139 -267 -75
-336 165 -29 100 -36 327 -13 448 8 45 19 82 23 82 5 0 6 10 2 22 -4 15 -2 19
7 13 10 -6 11 -2 6 15 -5 16 -4 20 5 15 9 -5 10 -1 5 15 -4 14 -3 20 3 16 11
-7 25 21 16 35 -3 5 -1 9 4 9 6 0 13 7 16 16 3 9 2 12 -4 9 -6 -4 2 18 17 49
15 30 29 54 31 52 2 -2 -4 -19 -12 -38 -16 -32 -16 -33 1 -8 41 57 101 114
138 131 48 22 66 23 108 5z m374 -213 c-3 -10 -5 -2 -5 17 0 19 2 27 5 18 2
-10 2 -26 0 -35z"/>
<path d="M4867 1942 c-10 -10 -17 -23 -17 -28 0 -5 5 -1 11 9 13 23 36 22 49
-2 13 -25 14 -53 1 -32 -10 16 -41 8 -41 -11 0 -9 3 -9 10 2 8 12 10 12 15 -2
9 -23 2 -73 -10 -71 -5 1 -13 12 -17 25 -5 18 -6 15 -5 -12 2 -29 6 -35 25
-34 26 1 28 -8 7 -26 -22 -18 -42 2 -54 53 l-9 42 -1 -37 c-1 -46 6 -66 30
-79 26 -13 53 3 69 41 17 41 8 134 -15 160 -22 25 -28 25 -48 2z"/>
<path d="M4150 4340 c-121 -7 -144 -11 -213 -40 -149 -62 -419 -261 -725 -533
-84 -75 -161 -141 -172 -147 -25 -13 -26 -37 -2 -44 9 -2 60 -10 112 -16 52
-6 113 -13 135 -15 68 -9 445 -43 535 -50 47 -3 105 -8 130 -10 282 -29 838
-50 1309 -50 l384 0 8 25 c4 14 40 149 79 300 40 151 80 300 91 330 24 70 24
111 -1 143 -21 27 -81 53 -140 61 -110 15 -332 38 -445 45 -160 10 -900 11
-1085 1z m1035 -115 c50 -2 146 -8 215 -11 69 -4 132 -8 140 -10 8 -1 47 -3
86 -3 55 -1 77 -6 95 -20 l23 -19 -36 -113 -36 -114 -209 4 c-114 2 -250 6
-302 10 l-94 6 -39 90 c-44 100 -68 163 -68 183 0 10 16 11 68 8 37 -3 108 -8
157 -11z m-722 -24 c32 -2 18 -43 -52 -145 -73 -107 -121 -195 -121 -221 0 -8
-10 -19 -22 -24 -48 -17 -608 -112 -646 -109 -39 3 -40 4 -24 23 9 11 104 96
210 188 105 93 192 171 192 174 0 3 -8 -1 -17 -9 -10 -8 -83 -71 -163 -139
-222 -190 -337 -286 -315 -260 41 48 538 469 506 428 -21 -27 -2 -20 35 13 68
59 109 73 234 79 63 3 126 5 140 4 14 -1 33 -2 43 -2z m-543 -90 c0 -11 -166
-158 -355 -315 -137 -114 -168 -136 -160 -114 3 8 15 18 28 24 12 5 21 16 19
23 -1 7 2 10 8 6 13 -8 42 14 35 25 -6 9 290 275 363 328 47 33 62 39 62 23z
m1759 -316 c-92 -343 -91 -340 -179 -340 -50 0 -411 15 -487 20 -26 2 -104 6
-173 10 -69 3 -147 8 -175 10 -27 3 -201 16 -385 30 -184 14 -346 27 -360 29
-41 7 182 -3 410 -19 323 -22 440 -28 889 -50 244 -12 309 -12 330 -2 23 11
31 30 68 162 76 269 136 466 140 461 2 -2 -33 -142 -78 -311z m-193 -70 c28
-14 61 -37 75 -51 22 -25 21 -25 -19 4 -69 49 -130 65 -235 60 -49 -2 -81 -1
-71 3 10 4 60 8 110 8 77 1 97 -3 140 -24z m-169 -23 c54 -16 130 -68 162
-112 22 -30 19 -28 -21 12 -87 84 -184 114 -318 96 -93 -12 -200 -47 -302 -99
-86 -43 -105 -46 -30 -4 74 42 175 84 241 100 66 17 213 34 221 25 3 -3 24
-11 47 -18z m150 -8 c28 -13 59 -37 68 -52 l18 -27 -29 26 c-43 40 -84 57
-171 74 l-78 15 70 -5 c45 -4 88 -14 122 -31z m-1759 -121 c-10 -2 -28 -2 -40
0 -13 2 -5 4 17 4 22 1 32 -1 23 -4z m150 -10 c-15 -2 -42 -2 -60 0 -18 2 -6
4 27 4 33 0 48 -2 33 -4z"/>
<path d="M5502 4119 c-23 -4 -55 -17 -70 -28 -39 -27 -125 -121 -118 -128 3
-3 30 19 59 49 29 30 67 63 85 72 l33 17 -41 -42 c-50 -51 -85 -99 -73 -99 5
0 26 18 47 39 36 36 40 38 73 29 19 -5 44 -8 56 -5 18 3 16 5 -13 14 l-35 10
40 8 c22 4 47 11 55 16 22 12 -36 12 -79 -1 -19 -5 -37 -8 -39 -6 -8 8 56 35
98 42 36 6 42 4 47 -15 3 -11 10 -21 17 -21 6 0 21 -3 34 -6 13 -4 22 -2 22 5
0 6 -7 11 -16 11 -9 0 -27 11 -40 25 -25 27 -60 31 -142 14z"/>
<path d="M5604 4003 c-8 -30 5 -56 31 -61 19 -4 35 14 34 38 0 8 -4 4 -10 -8
-11 -29 -34 -24 -34 8 0 17 7 26 25 30 22 5 23 7 7 13 -33 13 -46 8 -53 -20z"/>
<path d="M3680 3924 c-80 -69 -154 -135 -165 -147 l-20 -21 20 15 c40 31 315
270 315 275 0 7 -2 6 -150 -122z"/>
<path d="M6035 4302 c-22 -11 -48 -28 -57 -38 -48 -54 -101 -232 -193 -642
l-45 -204 20 -28 c11 -16 38 -42 59 -59 80 -64 141 -254 141 -441 0 -119 -20
-259 -60 -420 -71 -290 -77 -414 -22 -435 21 -8 356 160 464 232 284 191 496
423 618 677 40 86 90 226 90 255 0 9 -16 -31 -36 -89 -114 -339 -391 -659
-757 -874 -147 -87 -368 -189 -381 -176 -20 21 -10 178 19 300 90 375 103 534
58 735 -24 109 -58 172 -132 244 l-66 65 34 7 c19 4 59 10 90 14 55 7 56 7 38
-12 -9 -11 -17 -24 -17 -29 0 -5 4 -3 9 5 9 14 14 13 61 -14 29 -17 78 -19
100 -5 11 7 4 10 -27 10 -35 0 -82 13 -102 27 -3 2 6 14 19 28 28 29 29 29
-80 10 -104 -18 -121 -19 -115 -2 3 6 21 13 40 14 30 3 142 41 122 42 -4 1
-40 -6 -78 -15 -39 -9 -72 -14 -74 -12 -4 3 69 329 109 483 78 308 110 347
284 346 159 -1 207 -20 310 -124 68 -68 73 -77 97 -157 26 -92 103 -293 104
-273 1 7 8 10 16 7 9 -4 19 3 26 20 15 32 7 41 -20 24 -13 -8 -24 -9 -30 -3
-9 10 -91 265 -85 265 7 0 119 -160 141 -203 32 -64 25 -98 -29 -138 -30 -21
-36 -29 -22 -29 31 0 63 28 73 63 l9 32 1 -32 c1 -41 -19 -62 -91 -96 -73 -35
-79 -35 -88 -10 -8 19 -4 23 26 33 18 6 34 16 34 22 0 31 -115 379 -135 410
-30 45 -75 80 -141 110 -39 17 -68 22 -139 23 -49 0 -102 -3 -117 -7 -30 -9
-84 -51 -97 -77 -9 -15 -1 -16 101 -6 101 10 114 9 148 -7 20 -10 48 -30 61
-45 l24 -26 -188 7 c-149 5 -188 4 -191 -6 -2 -7 -20 -83 -41 -168 l-38 -155
27 -115 c38 -162 33 -151 64 -144 40 10 49 20 68 77 26 83 62 137 100 153 77
32 329 10 377 -34 48 -43 58 -99 27 -149 -24 -39 -99 -64 -264 -88 -110 -16
-176 -36 -176 -54 0 -5 -12 -24 -27 -41 -25 -31 -30 -32 -79 -27 -28 3 -67 13
-85 22 -29 14 -31 14 -14 0 24 -20 80 -35 127 -35 28 0 42 7 62 31 14 17 26
35 26 39 0 18 42 30 172 49 218 32 280 61 295 134 5 24 17 34 70 58 36 16 78
38 93 49 26 19 29 25 26 73 -5 93 -89 226 -254 406 -65 71 -97 97 -150 123
-62 31 -75 33 -182 36 -96 2 -122 0 -155 -16z m348 -261 c18 -15 18 -16 -2
-21 -26 -6 -288 5 -353 15 -32 5 -48 13 -48 22 0 22 377 8 403 -16z m65 -72
c54 -64 55 -63 -54 -56 -55 4 -110 7 -124 7 -15 1 -43 17 -69 40 l-44 40 132
0 132 0 27 -31z"/>
<path d="M3064 3921 c-30 -18 -64 -81 -64 -119 0 -22 52 -141 63 -142 13 0 8
19 -19 72 -35 68 -29 121 17 162 29 26 37 28 90 24 61 -4 109 -34 109 -67 0
-11 3 -12 11 -4 9 9 8 18 -4 36 -35 54 -143 74 -203 38z"/>
<path d="M6670 3839 c0 -24 3 -30 16 -25 9 3 20 6 25 6 5 0 2 11 -7 25 -22 34
-34 31 -34 -6z"/>
<path d="M5856 3602 c-10 -46 -16 -86 -13 -89 3 -3 20 -2 37 2 31 7 32 9 26
44 -3 20 -12 56 -19 81 l-13 45 -18 -83z"/>
<path d="M7011 3500 c14 -31 19 -36 19 -24 0 6 -7 19 -16 30 -14 18 -14 18 -3
-6z"/>
<path d="M7052 3370 c0 -14 2 -19 5 -12 2 6 2 18 0 25 -3 6 -5 1 -5 -13z"/>
<path d="M5310 3325 c-19 -7 -28 -14 -20 -14 8 0 29 6 45 14 39 17 21 18 -25
0z"/>
<path d="M5140 3284 c-312 -70 -413 -103 -658 -220 -137 -65 -355 -184 -348
-191 2 -2 97 43 212 101 330 165 480 223 704 275 137 31 237 59 210 59 -8 0
-62 -11 -120 -24z"/>
<path d="M7052 3240 c0 -14 2 -19 5 -12 2 6 2 18 0 25 -3 6 -5 1 -5 -13z"/>
<path d="M3741 2899 c-41 -6 -117 -24 -168 -40 -88 -28 -106 -39 -275 -167
-231 -174 -261 -202 -256 -238 3 -28 56 -75 82 -74 6 1 -6 10 -26 20 -39 21
-53 46 -42 74 8 21 383 305 443 335 53 28 208 68 292 76 118 12 319 -31 379
-81 68 -58 28 -98 -255 -254 -147 -81 -240 -126 -280 -135 l-60 -14 50 5 c28
3 78 18 112 35 l62 30 108 -54 c176 -89 251 -154 308 -267 31 -64 60 -90 95
-89 20 1 21 2 5 6 -33 8 -63 42 -93 107 -56 118 -177 209 -391 293 -22 8 -9
18 140 97 90 49 178 99 195 112 64 48 65 116 2 153 -18 11 -38 24 -44 30 -7 5
-13 8 -15 6 -2 -2 -38 5 -80 15 -101 24 -199 30 -288 19z"/>
<path d="M1180 2761 c50 -29 361 -101 625 -145 251 -42 728 -97 820 -94 22 0
2 5 -45 10 -511 54 -987 131 -1288 209 -120 31 -136 34 -112 20z"/>
<path d="M938 2733 c6 -2 18 -2 25 0 6 3 1 5 -13 5 -14 0 -19 -2 -12 -5z"/>
<path d="M2703 2513 c15 -2 37 -2 50 0 12 2 0 4 -28 4 -27 0 -38 -2 -22 -4z"/>
<path d="M5693 2505 c-41 -17 -44 -27 -3 -12 39 15 43 8 23 -39 -25 -58 -25
-318 0 -357 38 -59 9 -121 -59 -121 -59 0 -68 19 -74 157 l-5 122 -8 -100
c-12 -146 11 -195 90 -195 33 0 50 6 68 25 31 30 32 67 4 131 -20 44 -21 60
-16 184 3 74 12 150 19 167 16 43 3 56 -39 38z"/>
<path d="M3538 2393 c6 -2 18 -2 25 0 6 3 1 5 -13 5 -14 0 -19 -2 -12 -5z"/>
<path d="M3478 2383 c6 -2 18 -2 25 0 6 3 1 5 -13 5 -14 0 -19 -2 -12 -5z"/>
<path d="M3398 2373 c6 -2 18 -2 25 0 6 3 1 5 -13 5 -14 0 -19 -2 -12 -5z"/>
<path d="M5591 2354 c0 -11 3 -14 6 -6 3 7 2 16 -1 19 -3 4 -6 -2 -5 -13z"/>
<path d="M5582 2290 c0 -19 2 -27 5 -17 2 9 2 25 0 35 -3 9 -5 1 -5 -18z"/>
<path d="M765 2169 c11 -16 130 -78 230 -118 295 -118 714 -197 1090 -206
l180 -4 -150 10 c-320 20 -645 72 -895 144 -136 39 -325 111 -407 155 -29 15
-51 24 -48 19z"/>
<path d="M3194 2155 c-271 -43 -516 -174 -505 -271 3 -29 56 -34 390 -34 377
0 388 2 476 68 59 45 145 156 145 187 0 13 -6 27 -12 33 -35 27 -359 39 -494
17z m144 -32 c-8 -10 -19 -25 -23 -33 -8 -13 -7 -13 11 0 10 8 7 1 -8 -15 -56
-62 -61 -115 -16 -162 35 -37 71 -42 116 -19 35 18 78 130 68 179 -4 23 -3 28
4 17 14 -21 12 -45 -6 -112 -22 -79 -53 -108 -113 -108 -53 0 -84 18 -106 60
-30 58 -7 144 51 189 33 26 42 27 22 4z m-230 -14 c82 -28 86 -155 6 -218 -19
-15 -41 -21 -74 -21 -42 0 -52 4 -74 31 -14 17 -26 40 -26 52 1 18 3 16 15
-10 16 -37 42 -53 87 -53 59 0 108 54 108 120 0 44 -16 70 -55 86 -39 16 -73
7 -115 -29 l-25 -22 20 24 c19 23 68 50 91 51 6 0 25 -5 42 -11z"/>
<path d="M4458 2083 c7 -3 16 -2 19 1 4 3 -2 6 -13 5 -11 0 -14 -3 -6 -6z"/>
<path d="M4370 2070 c-34 -7 -34 -7 -5 -8 17 0 41 4 55 8 33 11 0 11 -50 0z"/>
<path d="M5630 2055 c0 -22 4 -25 34 -25 48 0 54 18 12 35 -46 19 -46 19 -46
-10z"/>
<path d="M6735 2059 c-33 -12 -64 -24 -70 -29 -5 -4 -52 -27 -103 -50 -79 -35
-95 -40 -109 -28 -14 11 -16 11 -10 -4 4 -13 -9 -25 -59 -53 -81 -46 -78 -57
5 -16 33 17 63 31 65 31 3 0 8 -17 12 -37 6 -33 4 -39 -27 -65 -18 -15 -39
-28 -46 -28 -7 0 -13 -5 -13 -11 0 -7 11 -9 29 -6 16 4 44 2 62 -3 18 -5 34
-8 35 -7 2 1 -1 22 -7 45 -7 33 -6 49 5 70 l14 27 8 -53 c9 -68 24 -77 25 -15
1 48 1 48 11 16 16 -49 28 -40 29 20 l1 52 15 -43 c8 -24 23 -46 32 -48 9 -3
24 -10 34 -15 20 -11 21 -8 6 24 -7 16 -7 34 -1 58 10 33 10 33 11 -18 1 -29
6 -53 11 -53 6 0 10 7 10 16 0 14 8 16 49 12 28 -3 56 -1 63 3 8 5 -10 9 -44
9 -63 0 -74 14 -43 54 8 11 15 27 15 35 -1 12 -7 8 -24 -11 l-24 -26 -6 36
c-12 77 -8 82 99 113 45 13 52 18 30 18 -16 0 -57 -9 -90 -20z m-65 -68 c0
-10 -3 -39 -6 -65 l-7 -46 -24 51 c-13 29 -22 53 -21 54 11 8 44 24 51 25 4 0
7 -8 7 -19z m-79 -30 c-7 -5 -13 -26 -14 -47 0 -38 0 -38 -11 -11 -12 33 -23
35 -28 5 -3 -21 -4 -21 -16 5 -12 27 -11 29 30 47 40 18 68 18 39 1z m-91 -48
c0 -10 -4 -24 -9 -31 -6 -10 -10 -8 -14 9 -3 12 -4 26 -1 31 9 14 24 9 24 -9z
m-10 -129 c0 -7 -10 -9 -25 -6 -25 4 -25 5 -9 23 14 15 19 17 26 7 4 -7 8 -18
8 -24z"/>
<path d="M800 2010 c0 -5 23 -55 51 -110 41 -80 67 -118 128 -179 42 -43 92
-88 111 -101 19 -13 0 9 -43 50 -92 86 -153 168 -196 264 -25 55 -27 67 -13
60 9 -4 54 -21 98 -38 68 -26 85 -37 102 -67 56 -96 203 -221 278 -235 l34 -6
-25 -24 c-51 -47 -21 -69 52 -39 41 17 40 31 -1 15 -53 -20 -59 -12 -24 30 40
48 62 51 74 8 13 -43 66 -62 149 -53 127 14 147 12 195 -22 30 -21 79 -40 150
-59 58 -14 109 -29 114 -32 4 -2 -6 -13 -22 -24 -17 -11 -34 -28 -37 -40 -6
-18 -13 -19 -68 -14 -45 3 -32 -1 43 -14 58 -11 152 -22 210 -26 100 -6 107
-5 140 18 49 33 60 61 60 156 0 123 -26 170 -105 187 -25 5 -23 3 11 -13 23
-11 49 -30 58 -43 17 -25 22 -74 8 -83 -5 -3 -80 9 -168 25 -87 17 -197 37
-244 45 -80 15 -111 24 -79 24 8 0 117 -18 242 -41 155 -28 232 -38 239 -31
17 17 -14 66 -56 86 -22 11 -78 23 -125 28 -191 19 -559 73 -554 81 3 4 -12 5
-34 2 -23 -4 -33 -3 -25 2 8 7 -14 15 -68 27 -121 26 -452 123 -553 162 -96
37 -107 39 -107 24z m823 -257 c-7 -2 -19 -2 -25 0 -7 3 -2 5 12 5 14 0 19 -2
13 -5z m289 -48 c134 -24 261 -49 283 -54 40 -10 40 -10 -10 -5 -51 6 -522 92
-540 99 -34 12 54 0 267 -40z m-315 9 c-3 -3 -12 -4 -19 -1 -8 3 -5 6 6 6 11
1 17 -2 13 -5z m50 -10 c-3 -3 -12 -4 -19 -1 -8 3 -5 6 6 6 11 1 17 -2 13 -5z
m56 -11 c-7 -2 -19 -2 -25 0 -7 3 -2 5 12 5 14 0 19 -2 13 -5z m92 -13 c27 -7
27 -8 5 -8 -14 0 -38 4 -55 8 -27 7 -27 8 -5 8 14 0 39 -4 55 -8z m478 -47
c-7 -2 -19 -2 -25 0 -7 3 -2 5 12 5 14 0 19 -2 13 -5z m-130 -164 c17 -24 70
-38 140 -39 55 0 58 -11 13 -44 -23 -18 -42 -21 -114 -20 -48 0 -105 4 -127 8
l-39 8 57 30 c32 17 56 32 54 34 -2 2 -30 -7 -62 -21 -33 -13 -62 -22 -64 -19
-6 6 45 55 74 72 30 17 52 14 68 -9z"/>
<path d="M610 1813 c0 -10 -12 -45 -25 -78 -18 -42 -21 -61 -13 -64 7 -2 33
-24 58 -47 88 -82 149 -89 190 -22 25 41 25 48 0 48 -11 0 -37 7 -58 15 -30
12 -43 26 -60 61 l-21 46 22 -19 c33 -30 132 -83 153 -83 11 0 -10 14 -46 31
-36 17 -80 42 -98 55 -17 14 -36 23 -41 19 -5 -3 -13 0 -17 6 -4 8 -3 9 4 5
25 -15 10 4 -18 24 -28 20 -30 20 -30 3z"/>
<path d="M720 1705 c0 -6 56 -35 67 -35 4 0 -7 9 -25 20 -33 20 -42 24 -42 15z"/>
<path d="M870 1655 c0 -7 141 -77 146 -73 2 2 -30 21 -71 41 -41 20 -75 35
-75 32z"/>
<path d="M2665 1640 c4 -6 71 -11 163 -11 86 -1 144 -4 127 -6 -62 -7 -75 -14
-91 -45 -19 -37 -14 -126 10 -162 l14 -23 109 28 c59 16 115 28 123 28 24 -1
-152 -58 -182 -59 -16 0 -28 -4 -28 -8 0 -45 432 -95 529 -61 36 13 60 52 86
143 20 69 14 114 -20 146 -24 22 -32 23 -157 23 -99 0 -118 2 -73 7 33 4 -92
7 -278 8 -223 1 -336 -1 -332 -8z m834 -76 c3 -4 -19 -4 -49 0 -30 3 -76 6
-102 6 -27 0 -48 4 -48 8 0 9 190 -5 199 -14z m-19 -44 c41 -10 -58 -3 -150
11 -46 7 -41 7 30 3 47 -2 101 -9 120 -14z m-132 -93 l117 -3 -122 -2 c-131
-2 -133 -1 -124 52 l6 31 3 -37 3 -37 117 -4z m102 54 l45 -8 -40 -1 c-22 0
-67 4 -100 8 l-60 7 55 1 c30 0 75 -3 100 -7z"/>
<path d="M1050 1567 c44 -26 230 -87 359 -118 217 -51 201 -45 190 -81 -5 -17
-21 -44 -36 -60 -39 -40 -23 -44 20 -4 28 25 37 42 37 66 0 26 3 30 18 26 43
-14 480 -109 622 -136 148 -27 361 -51 592 -66 l108 -6 10 -38 c5 -20 19 -45
29 -54 42 -38 301 -46 383 -12 34 15 78 58 78 77 0 5 -82 9 -182 9 -100 0
-178 3 -174 7 4 4 159 8 344 9 229 1 384 7 482 18 146 16 374 55 367 62 -2 3
-44 -2 -93 -11 -213 -36 -347 -46 -685 -52 -500 -8 -950 18 -1245 72 -384 71
-966 205 -1104 255 -152 54 -148 53 -120 37z"/>
<path d="M1508 1463 c7 -3 16 -2 19 1 4 3 -2 6 -13 5 -11 0 -14 -3 -6 -6z"/>
<path d="M1548 1453 c7 -3 16 -2 19 1 4 3 -2 6 -13 5 -11 0 -14 -3 -6 -6z"/>
<path d="M1598 1443 c7 -3 16 -2 19 1 4 3 -2 6 -13 5 -11 0 -14 -3 -6 -6z"/>
<path d="M1638 1433 c6 -2 18 -2 25 0 6 3 1 5 -13 5 -14 0 -19 -2 -12 -5z"/>
<path d="M1693 1423 c9 -2 23 -2 30 0 6 3 -1 5 -18 5 -16 0 -22 -2 -12 -5z"/>
<path d="M1748 1413 c6 -2 18 -2 25 0 6 3 1 5 -13 5 -14 0 -19 -2 -12 -5z"/>
<path d="M1803 1403 c9 -2 23 -2 30 0 6 3 -1 5 -18 5 -16 0 -22 -2 -12 -5z"/>
<path d="M2720 1328 c-35 -18 -45 -28 -45 -48 0 -43 63 -52 325 -46 124 3 245
9 270 13 25 5 -77 6 -225 4 -259 -3 -355 5 -355 28 0 11 29 35 65 54 47 25 15
20 -35 -5z"/>
<path d="M4318 1273 c7 -3 16 -2 19 1 4 3 -2 6 -13 5 -11 0 -14 -3 -6 -6z"/>
<path d="M3328 1263 c7 -3 16 -2 19 1 4 3 -2 6 -13 5 -11 0 -14 -3 -6 -6z"/>
<path d="M4188 1190 c-100 -37 -277 -76 -408 -90 -58 -6 -125 -14 -150 -18
l-45 -7 45 -3 c72 -6 256 18 375 48 102 26 275 86 275 96 0 6 -9 4 -92 -26z"/>
<path d="M3903 943 c9 -2 23 -2 30 0 6 3 -1 5 -18 5 -16 0 -22 -2 -12 -5z"/>
<path d="M3843 933 c9 -2 23 -2 30 0 6 3 -1 5 -18 5 -16 0 -22 -2 -12 -5z"/>
</g>
</svg>
