<?xml version="1.0" standalone="no"?>
<!DOCTYPE svg PUBLIC "-//W3C//DTD SVG 20010904//EN"
 "http://www.w3.org/TR/2001/REC-SVG-20010904/DTD/svg10.dtd">
<svg version="1.0" xmlns="http://www.w3.org/2000/svg"
 width="300.000000pt" height="188.000000pt" viewBox="0 0 300.000000 188.000000"
 preserveAspectRatio="xMidYMid meet">
<metadata>
Created by potrace 1.10, written by Peter Selinger 2001-2011
</metadata>
<g transform="translate(0.000000,188.000000) scale(0.100000,-0.100000)"
fill="#000000" stroke="none">
<path d="M3 1874 c9 -10 207 -13 212 -4 3 5 -45 9 -107 9 -61 1 -109 -2 -105
-5z"/>
<path d="M230 1871 c0 -4 47 -8 105 -7 64 1 105 -3 105 -9 0 -5 4 -4 9 4 6 9
11 10 15 2 10 -16 26 -14 26 4 0 13 -21 15 -130 15 -71 0 -130 -4 -130 -9z"/>
<path d="M513 1866 c2 -6 18 -11 35 -11 42 -1 35 20 -7 21 -19 1 -30 -3 -28
-10z"/>
<path d="M606 1866 c11 -6 73 -11 146 -12 71 0 131 -4 135 -7 3 -4 12 -2 19 4
8 7 14 7 19 -1 7 -11 25 -5 25 9 0 10 7 9 -194 14 -127 3 -164 2 -150 -7z"/>
<path d="M1010 1871 c0 -5 17 -13 38 -16 20 -3 48 -8 62 -10 14 -2 32 0 40 5
9 6 17 5 21 -2 10 -15 39 -2 39 17 0 11 -6 15 -17 11 -28 -9 -136 -10 -161 -2
-13 4 -22 3 -22 -3z"/>
<path d="M1251 1871 c-34 -9 -37 -27 -4 -25 48 2 53 4 47 19 -7 16 -7 16 -43
6z"/>
<path d="M1344 1868 c-3 -4 -11 -5 -19 -1 -8 3 -15 0 -15 -7 0 -9 14 -11 49
-8 27 3 56 1 66 -4 10 -6 21 -6 30 2 8 6 19 9 24 6 5 -4 12 -2 15 3 3 5 -5 11
-19 13 -14 3 -25 1 -25 -3 0 -5 -7 -9 -15 -9 -8 0 -15 4 -15 8 0 10 -70 10
-76 0z"/>
<path d="M1510 1860 c0 -27 41 -27 65 0 17 19 17 19 -14 10 -19 -5 -29 -5 -26
1 4 5 -1 9 -9 9 -9 0 -16 -9 -16 -20z"/>
<path d="M1630 1864 c0 -13 -3 -14 -14 -5 -15 13 -32 -1 -22 -18 7 -11 46 -2
46 11 0 5 8 4 19 -2 27 -14 44 -13 35 3 -6 9 -5 9 7 0 18 -14 132 -14 141 0 4
7 11 7 21 -1 9 -8 41 -11 88 -9 60 2 75 6 77 20 2 9 -1 17 -7 17 -6 0 -11 -5
-11 -10 0 -6 -12 -8 -27 -5 -16 3 -66 5 -113 4 -47 0 -95 0 -108 0 -13 1 -20
-4 -17 -9 3 -6 2 -10 -3 -10 -6 0 -12 6 -15 14 -6 15 -23 16 -44 3 -7 -4 -22
-3 -33 3 -16 9 -20 8 -20 -6z"/>
<path d="M2045 1862 c-8 -21 2 -27 21 -12 13 12 17 11 24 0 7 -12 13 -12 35 0
21 11 28 12 34 1 6 -10 10 -8 15 6 7 17 8 17 18 -1 8 -15 12 -16 19 -5 16 26
9 29 -76 27 -63 -2 -86 -6 -90 -16z"/>
<path d="M2260 1860 c0 -11 6 -20 13 -20 7 0 18 9 25 20 11 18 10 20 -13 20
-18 0 -25 -5 -25 -20z"/>
<path d="M2311 1866 c-9 -11 -7 -15 9 -19 11 -3 20 -2 20 1 0 4 11 8 25 8 14
1 23 -1 21 -5 -2 -3 24 -6 59 -7 50 -1 64 3 74 18 11 17 6 18 -93 18 -76 0
-107 -4 -115 -14z"/>
<path d="M2531 1866 c-10 -12 20 -14 199 -15 127 0 210 3 210 9 0 6 9 6 26 0
33 -13 34 -13 34 5 0 13 -32 15 -229 15 -184 0 -231 -3 -240 -14z"/>
<path d="M34 1768 c-3 -4 36 -8 87 -8 51 0 90 2 87 5 -8 9 -169 12 -174 3z"/>
<path d="M272 1763 c32 -2 84 -2 115 0 32 2 6 3 -57 3 -63 0 -89 -1 -58 -3z"/>
<path d="M893 1753 c20 -2 54 -2 75 0 20 2 3 4 -38 4 -41 0 -58 -2 -37 -4z"/>
<path d="M1498 1753 c28 -2 76 -2 105 0 28 2 5 3 -53 3 -58 0 -81 -1 -52 -3z"/>
<path d="M412 1735 c7 -7 308 -9 315 -1 3 3 -67 6 -157 6 -90 0 -161 -2 -158
-5z"/>
<path d="M2510 1699 c0 -4 59 -8 130 -8 72 0 130 4 130 9 0 5 -58 8 -130 8
-71 -1 -130 -5 -130 -9z"/>
<path d="M5 1520 c-3 -4 61 -11 143 -14 81 -4 168 -8 195 -10 26 -1 47 1 47 6
0 4 -15 8 -32 8 -80 1 -315 11 -330 15 -10 1 -20 0 -23 -5z"/>
<path d="M402 1508 c5 -15 108 -23 108 -8 0 5 -17 8 -37 7 -21 -2 -46 1 -57 6
-14 7 -17 5 -14 -5z"/>
<path d="M680 1489 c-38 -5 -33 -6 28 -6 39 -1 72 0 72 2 0 7 -59 9 -100 4z"/>
<path d="M0 1317 c5 -5 127 -13 359 -22 111 -4 149 -1 95 9 -34 6 -459 18
-454 13z"/>
<path d="M2490 1300 c-54 -3 -79 -8 -68 -13 9 -5 30 -6 47 -4 17 3 31 1 31 -3
0 -5 8 -11 18 -13 9 -2 -14 -2 -53 0 -38 3 -71 9 -73 14 -6 15 -52 10 -59 -7
-9 -24 14 -64 37 -64 12 0 35 7 53 17 29 15 30 17 12 24 -16 6 -17 8 -3 8 30
2 31 -20 2 -50 -26 -27 -22 -43 4 -17 9 9 12 8 12 -4 0 -9 5 -20 11 -24 7 -4
10 3 7 22 -2 23 2 29 25 35 15 4 27 6 27 4 0 -1 -9 -24 -21 -50 -14 -32 -24
-44 -31 -37 -6 6 -21 7 -39 2 -31 -9 -37 -2 -17 18 9 9 9 12 0 12 -6 0 -15 -8
-20 -17 -9 -15 -12 -15 -33 -1 -13 9 -37 28 -54 42 -70 61 -198 96 -354 96
-167 0 -420 -13 -415 -22 3 -4 -2 -8 -10 -8 -8 0 -21 -7 -30 -15 -8 -8 -34
-24 -58 -34 -47 -20 -209 -121 -194 -121 5 0 31 14 58 30 57 35 68 38 43 10
-15 -17 -16 -20 -3 -20 9 0 22 -7 29 -16 12 -15 6 -16 -71 -12 -86 5 -110 3
-110 -12 0 -8 74 -15 260 -26 58 -3 110 -10 115 -14 6 -5 18 -2 28 5 12 8 14
15 8 20 -16 9 -13 25 4 25 8 0 19 9 25 20 6 11 18 20 27 20 9 0 13 3 10 6 -3
4 5 16 19 26 14 11 23 25 21 32 -3 6 3 19 12 30 15 17 14 18 -9 15 -16 -3 -26
-11 -28 -25 -2 -12 -27 -42 -57 -68 -63 -54 -112 -62 -152 -24 -18 17 -26 19
-35 10 -7 -7 -28 -12 -48 -12 -34 1 -34 1 -15 16 11 9 45 28 75 44 45 22 64
27 106 23 30 -3 54 -1 58 6 9 14 -40 45 -60 37 -12 -5 -15 -2 -10 10 3 8 6 18
6 21 0 4 9 -2 20 -12 14 -13 38 -18 100 -19 45 0 82 3 84 9 3 6 5 5 5 -2 1 -6
-11 -21 -25 -32 -38 -30 -23 -26 34 10 57 35 139 50 239 42 93 -7 95 -15 3
-13 -41 1 -86 1 -100 0 -23 -1 -23 -2 -5 -10 18 -8 17 -9 -8 -9 -30 -1 -97
-26 -97 -37 0 -3 7 -3 16 0 9 3 12 2 9 -5 -4 -5 -14 -7 -24 -4 -21 6 -111 -78
-111 -104 0 -15 9 -18 50 -20 42 -1 49 1 43 15 -3 8 -9 12 -12 7 -10 -14 -31
-14 -45 -1 -14 14 -10 38 5 38 5 0 28 12 50 26 22 14 46 23 52 21 7 -2 20 9
29 25 16 25 23 28 72 28 92 0 111 -21 56 -60 -18 -13 -30 -30 -30 -44 0 -12
-5 -27 -12 -34 -9 -9 -6 -12 15 -12 25 0 26 2 16 27 -9 25 -7 30 18 50 41 33
58 29 31 -7 -12 -16 -25 -30 -30 -30 -4 0 -5 -7 -2 -15 4 -9 19 -15 38 -15 22
0 33 5 33 15 0 8 -5 15 -11 15 -6 0 -4 5 4 10 10 6 11 10 3 10 -17 0 -17 27
-1 32 8 3 0 17 -22 36 -34 32 -29 38 18 26 20 -6 23 -12 21 -43 -2 -24 1 -35
9 -33 7 1 20 -11 30 -28 13 -23 22 -28 37 -23 11 3 26 6 33 6 6 0 12 4 12 9 0
4 -9 8 -21 8 -15 0 -19 5 -15 15 3 8 1 15 -4 15 -6 0 -10 11 -10 25 0 17 -8
29 -24 37 -14 6 -27 17 -31 26 -4 12 2 13 36 8 23 -4 51 -12 63 -18 11 -7 24
-11 29 -10 4 1 7 -3 7 -8 0 -5 3 -9 8 -8 12 2 41 -13 94 -49 45 -30 57 -33
120 -33 51 0 74 -4 82 -15 7 -9 19 -12 35 -8 22 6 22 6 -10 21 -19 8 -42 14
-51 14 -14 -1 -11 10 18 62 19 34 31 66 27 69 -17 18 161 2 210 -18 13 -5 16
-3 11 8 -4 11 -25 18 -62 22 -108 12 -92 20 35 18 100 -1 116 1 73 7 -62 9
-202 9 -330 0z m-360 -142 c0 -30 -25 -15 -28 17 -3 25 -2 27 12 16 9 -8 16
-22 16 -33z m-652 -73 c19 -24 40 -36 27 -15 -4 6 6 10 21 10 20 0 25 -3 18
-10 -12 -12 -37 -15 -103 -12 l-44 2 24 24 c31 31 34 31 57 1z"/>
<path d="M600 1291 c63 -5 153 -11 200 -14 47 -4 155 -9 240 -12 85 -3 171 -8
190 -10 89 -11 229 -15 234 -7 3 5 -53 12 -132 16 -75 4 -225 11 -332 16 -107
6 -267 12 -355 14 -147 4 -150 4 -45 -3z"/>
<path d="M2880 1280 c0 -5 -18 -10 -40 -10 -35 0 -42 -4 -52 -27 -7 -16 -36
-55 -65 -87 -29 -32 -50 -62 -48 -67 3 -4 -23 -7 -57 -6 -96 3 -188 -5 -188
-16 0 -6 20 -7 50 -3 33 4 78 1 128 -10 62 -13 83 -14 107 -4 28 11 29 13 10
21 -15 6 -8 8 25 6 45 -2 45 -2 73 51 20 37 38 56 61 66 51 21 57 95 9 96 -7
0 -13 -4 -13 -10z m-18 -52 c-17 -18 -24 -20 -34 -10 -10 10 -10 15 2 22 8 5
24 10 35 10 19 0 19 -1 -3 -22z m-34 -54 c1 0 -4 -13 -12 -28 -15 -30 -23 -25
-26 14 -3 40 -1 43 18 29 9 -7 18 -14 20 -15z m-49 -51 c1 -20 -4 -23 -34 -23
-19 0 -35 2 -35 6 0 3 12 21 27 39 24 30 29 32 35 17 3 -9 7 -27 7 -39z"/>
<path d="M1945 1181 c-3 -6 -10 -9 -15 -6 -16 10 -40 -7 -40 -27 0 -12 -8 -27
-17 -34 -23 -18 -2 -19 43 -2 24 8 35 20 40 41 6 30 1 46 -11 28z"/>
<path d="M2551 1166 c2 -2 36 -6 74 -9 44 -4 63 -3 50 3 -19 8 -133 14 -124 6z"/>
<path d="M1104 1095 c2 -30 0 -55 -5 -55 -5 0 -6 -7 -3 -15 4 -11 0 -15 -16
-15 -63 0 -277 -80 -236 -88 10 -2 28 0 40 6 26 12 151 49 191 57 17 3 71 8
120 11 50 3 128 9 175 14 74 7 64 8 -82 7 -132 -2 -164 1 -156 11 7 8 7 12 0
12 -12 0 -10 38 2 58 4 7 3 12 -2 12 -6 0 -8 9 -5 20 4 14 0 20 -11 20 -13 0
-15 -9 -12 -55z"/>
<path d="M1830 1119 c0 -26 -3 -29 -20 -24 -15 5 -18 3 -14 -9 3 -9 10 -13 15
-10 5 3 9 0 9 -5 0 -6 7 -11 15 -11 11 0 15 12 15 45 0 25 -4 45 -10 45 -5 0
-10 -14 -10 -31z"/>
<path d="M2335 1121 c-8 -14 9 -22 62 -27 35 -3 42 -1 28 5 -11 5 -35 10 -53
10 -19 1 -31 5 -27 11 3 6 4 10 1 10 -3 0 -7 -4 -11 -9z"/>
<path d="M775 1035 c-38 -7 -84 -14 -102 -14 -43 -1 -143 -56 -198 -110 -72
-69 -73 -76 -9 -77 63 0 78 23 17 28 l-38 3 45 33 c36 27 50 31 75 26 42 -10
110 -11 132 -2 13 5 10 7 -14 9 -18 1 -39 2 -45 3 -7 1 -17 -3 -21 -9 -6 -7
-10 -6 -14 3 -2 6 -16 12 -29 12 -13 0 -24 5 -24 10 0 6 7 10 16 10 9 0 33 10
52 22 29 18 50 22 105 21 41 -1 73 -6 77 -13 5 -8 18 -8 51 0 25 6 83 17 129
24 l85 13 -92 -1 c-51 0 -93 -4 -93 -8 0 -4 -14 -8 -32 -8 -39 0 -28 14 22 28
35 10 35 10 5 10 -16 0 -61 -6 -100 -13z"/>
<path d="M2668 1006 c-15 -15 -67 -25 -163 -32 -83 -6 -125 -19 -160 -50 -22
-19 -24 -22 -5 -10 59 38 131 49 216 32 29 -6 44 -4 55 5 20 19 36 21 61 8 19
-10 20 -9 16 15 -3 14 -1 26 3 26 5 0 9 5 9 10 0 14 -16 12 -32 -4z"/>
<path d="M2706 1002 c-3 -4 -3 -17 -1 -28 2 -10 4 -23 4 -29 1 -5 5 -3 11 5 5
9 5 19 -1 26 -7 8 -6 13 3 16 9 3 9 6 1 11 -7 4 -14 4 -17 -1z"/>
<path d="M2751 997 c-16 -16 -13 -37 4 -30 9 3 25 -3 36 -13 17 -16 22 -16 29
-4 15 23 12 43 -4 37 -8 -3 -16 -1 -18 5 -5 15 -34 18 -47 5z"/>
<path d="M1372 973 c-59 -11 -25 -74 39 -71 61 2 71 18 12 18 -64 0 -71 20
-15 43 31 13 33 15 12 15 -14 -1 -35 -3 -48 -5z"/>
<path d="M1130 948 c-14 -6 -20 -12 -14 -15 8 -3 6 -25 -7 -75 -20 -75 -23
-126 -9 -168 7 -22 8 -20 10 15 l3 40 7 -45 c5 -25 6 -53 3 -62 -6 -25 -44
-22 -68 5 -11 12 -32 30 -47 40 -27 17 -28 17 -28 -1 0 -32 -31 -51 -85 -51
-28 1 -63 -4 -78 -10 -39 -15 -87 -13 -117 4 -53 30 -75 36 -155 38 -61 1 -88
6 -101 19 -21 18 -54 8 -54 -16 0 -14 68 -26 228 -41 108 -10 118 -24 17 -24
-160 -1 -635 -24 -635 -31 0 -12 212 -21 327 -16 60 3 191 8 293 11 201 6 564
20 920 35 124 5 387 12 585 16 338 6 363 8 405 28 57 27 90 88 84 155 -4 43
-30 98 -41 87 -3 -3 -17 4 -31 14 -14 12 -39 20 -61 20 l-36 -1 40 -14 c53
-19 85 -59 85 -108 0 -45 -24 -91 -54 -106 -17 -8 -18 -10 -4 -10 9 -1 20 4
23 9 3 6 11 10 16 10 5 0 2 -11 -7 -25 -14 -22 -21 -24 -58 -19 -22 4 -57 15
-76 26 l-35 20 24 -26 24 -26 -32 0 c-24 0 -42 10 -76 44 l-44 44 -17 -44 -17
-44 -236 -1 c-130 -1 -247 -2 -261 -4 -14 -1 -103 -6 -197 -9 l-173 -7 -2 28
c-1 27 -3 51 -7 83 -1 10 -4 11 -9 3 -4 -6 -7 15 -8 47 0 71 -29 119 -90 149
-45 23 -85 26 -124 9z m80 -28 c0 -5 15 -16 34 -24 19 -8 39 -24 46 -35 6 -12
14 -20 18 -17 11 6 6 -125 -6 -154 -9 -23 -30 -47 -66 -78 -13 -10 -21 -10
-46 3 -40 20 -60 62 -61 127 -1 42 -3 48 -9 28 -7 -23 -8 -22 -9 10 0 20 10
53 24 78 18 32 20 42 9 42 -20 0 -18 18 4 23 32 9 62 7 62 -3z m1085 -242 c11
-16 12 -24 4 -27 -12 -4 -39 25 -39 41 0 16 19 8 35 -14z m-948 -33 c0 -10
-10 -15 -29 -15 -27 0 -35 9 -21 23 13 13 50 7 50 -8z m-317 -10 c7 -9 11 -17
9 -19 -8 -8 -217 -11 -212 -3 2 4 38 7 79 7 59 0 74 3 74 15 0 20 34 19 50 0z"/>
<path d="M1220 881 c0 -6 7 -11 16 -11 18 0 44 -58 44 -98 0 -34 -25 -98 -46
-120 -22 -21 -8 -28 16 -7 53 48 63 171 17 212 -31 28 -47 36 -47 24z"/>
<path d="M1185 866 c-18 -14 -18 -15 -2 -16 10 0 17 -8 17 -21 0 -14 5 -19 17
-17 24 4 26 22 6 47 -16 20 -20 21 -38 7z"/>
<path d="M1152 817 c-15 -36 -15 -47 1 -47 12 -1 47 -66 47 -89 0 -6 -7 -14
-15 -17 -12 -5 -13 -10 -4 -20 14 -17 29 -18 29 -3 0 6 9 24 20 39 18 25 18
29 4 34 -9 3 -20 4 -25 0 -5 -3 -9 2 -9 10 0 9 5 16 11 16 5 0 7 5 4 10 -5 8
-11 7 -20 0 -11 -9 -15 -4 -20 27 -4 21 -8 45 -9 53 -2 9 -7 4 -14 -13z"/>
<path d="M1247 793 c-11 -10 -8 -51 3 -58 6 -4 10 8 10 29 0 37 -2 41 -13 29z"/>
<path d="M1140 712 c0 -19 12 -42 22 -42 14 0 5 43 -9 48 -7 2 -13 -1 -13 -6z"/>
<path d="M2601 917 c-12 -15 -5 -27 16 -27 7 0 13 9 13 20 0 23 -13 26 -29 7z"/>
<path d="M2806 904 c-9 -23 -9 -23 20 -21 19 1 27 -3 30 -16 4 -29 11 -31 24
-8 8 16 8 25 -2 39 -17 23 -64 27 -72 6z"/>
<path d="M1320 902 c0 -15 24 -32 45 -32 19 0 18 2 -5 20 -27 21 -40 25 -40
12z"/>
<path d="M2420 892 c-8 -4 -16 -15 -17 -25 -1 -17 1 -17 21 2 12 12 26 18 31
14 4 -5 5 -2 1 5 -8 13 -14 14 -36 4z"/>
<path d="M660 827 c-25 -10 -25 -10 -2 -14 12 -3 31 -3 42 -1 20 3 20 4 3 14
-13 8 -26 8 -43 1z"/>
<path d="M428 802 c-5 -59 8 -107 29 -109 16 -1 18 6 14 49 l-3 50 61 -4 c34
-1 61 0 61 4 0 9 -28 15 -102 22 -49 4 -58 2 -60 -12z"/>
<path d="M16 783 c10 -7 29 -11 42 -8 40 7 36 13 -13 17 -38 3 -43 1 -29 -9z"/>
<path d="M2643 759 c-17 -17 -16 -34 1 -48 9 -8 16 -8 20 -2 4 6 14 8 24 5 9
-2 7 1 -5 7 -12 6 -23 20 -25 31 -2 15 -5 17 -15 7z"/>
<path d="M1420 756 c0 -18 35 -35 58 -30 44 11 45 20 2 16 -25 -3 -40 0 -40 7
0 6 -4 11 -10 11 -5 0 -10 -2 -10 -4z"/>
<path d="M2720 738 c0 -4 9 -12 20 -18 11 -6 18 -15 15 -21 -8 -12 12 -11 77
2 59 12 77 23 54 32 -9 4 -16 2 -16 -3 0 -15 -33 -12 -56 4 -20 15 -94 18 -94
4z"/>
<path d="M2604 657 l-30 -32 95 -1 c53 -1 149 -3 213 -5 110 -4 118 -3 118 15
0 12 -5 16 -16 12 -8 -3 -68 -5 -132 -5 -203 2 -210 3 -205 17 3 6 -1 12 -8
12 -11 0 -11 3 1 10 8 5 11 9 5 9 -5 0 -24 -15 -41 -32z"/>
<path d="M60 653 c0 -12 5 -25 10 -28 6 -3 10 -2 10 2 0 5 12 9 28 10 46 1 52
3 52 13 0 10 -35 9 -46 -2 -8 -8 -37 2 -46 16 -5 6 -8 2 -8 -11z"/>
<path d="M1795 560 c-55 -5 -136 -11 -180 -14 -44 -3 -114 -8 -155 -11 -132
-9 -203 -14 -270 -20 -36 -3 -105 -8 -155 -10 -49 -3 -115 -7 -145 -10 -30 -2
-98 -7 -150 -11 -168 -11 -242 -23 -105 -18 66 3 127 7 135 9 8 2 74 6 145 10
72 3 216 12 320 20 105 8 231 17 280 20 50 3 134 10 189 16 54 5 120 9 147 9
27 0 49 5 49 10 0 6 -1 9 -2 9 -2 -1 -48 -5 -103 -9z"/>
<path d="M1943 563 c20 -2 54 -2 75 0 20 2 3 4 -38 4 -41 0 -58 -2 -37 -4z"/>
<path d="M2420 559 c0 -5 28 -9 63 -8 71 1 67 5 -10 12 -29 2 -53 0 -53 -4z"/>
<path d="M1990 530 c0 -4 30 -7 68 -8 37 -1 63 1 57 3 -20 7 -125 12 -125 5z"/>
<path d="M2490 530 l-75 -6 65 -1 c36 0 97 3 135 7 l70 7 -60 0 c-33 -1 -94
-3 -135 -7z"/>
<path d="M2287 513 c-3 -5 16 -7 41 -5 80 5 90 9 25 11 -34 0 -64 -2 -66 -6z"/>
<path d="M2110 500 c-20 -4 7 -5 60 -3 52 3 97 7 99 9 7 7 -122 2 -159 -6z"/>
<path d="M1420 482 c0 -5 26 -7 58 -5 83 6 87 11 10 12 -38 1 -68 -3 -68 -7z"/>
<path d="M1917 484 c-1 -1 -58 -5 -127 -8 -201 -11 -281 -17 -340 -26 -40 -6
-26 -7 55 -3 61 3 126 7 145 8 19 2 94 7 165 10 72 4 136 8 143 10 6 3 12 0
12 -5 0 -6 4 -10 8 -10 5 0 9 6 9 14 0 10 -11 14 -34 13 -19 -1 -35 -3 -36 -3z"/>
<path d="M2955 480 l-40 -6 40 -5 c42 -6 49 -5 44 8 -2 4 -22 6 -44 3z"/>
<path d="M935 461 c-14 -13 3 -17 80 -15 95 1 129 13 44 15 -30 1 -69 2 -87 3
-18 1 -35 0 -37 -3z"/>
<path d="M1120 461 c0 -10 127 -7 137 3 3 3 -26 6 -65 6 -40 0 -72 -4 -72 -9z"/>
<path d="M2710 459 c0 -7 -30 -10 -90 -7 -50 1 -90 0 -90 -4 0 -7 29 -12 51
-10 3 1 38 2 77 3 45 1 69 6 65 12 -4 6 5 8 25 4 19 -4 32 -2 32 3 0 6 -16 10
-35 10 -19 0 -35 -5 -35 -11z"/>
<path d="M335 450 l-50 -7 45 -1 c25 -1 52 3 60 8 8 5 11 9 5 8 -5 -1 -32 -4
-60 -8z"/>
<path d="M820 450 c-25 -4 -36 -8 -25 -9 11 -1 30 -4 42 -7 12 -2 23 2 27 11
3 8 4 14 3 13 -1 0 -22 -4 -47 -8z"/>
<path d="M688 445 c-2 -2 -27 -5 -56 -6 -28 -1 -50 -5 -47 -7 4 -4 99 -6 110
-1 3 1 9 2 14 3 19 2 20 12 2 13 -11 1 -21 0 -23 -2z"/>
<path d="M1290 440 l-75 -6 72 -2 c39 -1 75 3 78 8 3 6 5 9 3 8 -2 -1 -37 -4
-78 -8z"/>
<path d="M2300 436 c0 -6 9 -12 20 -12 11 0 20 3 20 6 0 3 28 3 62 2 35 -2 60
0 55 4 -13 13 -157 13 -157 0z"/>
<path d="M508 432 c-32 -2 -58 -6 -58 -10 0 -8 110 -5 118 3 9 9 -1 10 -60 7z"/>
<path d="M2124 428 c-3 -5 28 -7 68 -7 75 2 69 6 -15 11 -27 2 -51 0 -53 -4z"/>
<path d="M409 426 c-3 -3 -203 -15 -257 -16 -7 0 -10 -5 -7 -10 4 -6 10 -8 14
-5 6 3 188 16 268 18 7 0 10 4 7 9 -5 8 -18 11 -25 4z"/>
<path d="M2815 418 c-204 -11 -207 -17 -5 -11 96 2 179 8 184 13 4 4 -3 7 -15
7 -13 -1 -87 -5 -164 -9z"/>
<path d="M2483 402 c-75 -4 -66 -17 9 -15 35 1 80 2 101 2 20 1 37 5 37 9 0 9
-46 10 -147 4z"/>
<path d="M1195 380 c-4 -6 12 -10 44 -10 28 0 51 4 51 8 0 12 -87 14 -95 2z"/>
<path d="M968 375 c-3 -3 -18 -8 -34 -11 -16 -3 -31 -8 -34 -11 -3 -3 11 -3
30 1 19 3 59 8 88 10 72 5 79 16 10 16 -30 0 -57 -2 -60 -5z"/>
<path d="M738 272 c-27 -2 -48 -7 -48 -13 0 -11 28 -11 85 -1 50 9 26 18 -37
14z"/>
<path d="M400 241 c8 -5 35 -5 60 -1 l45 7 -60 1 c-37 1 -54 -2 -45 -7z"/>
<path d="M139 235 c-3 -2 -35 -5 -72 -7 -37 -1 -67 -6 -67 -10 0 -6 41 -5 147
4 7 1 10 5 7 10 -6 9 -9 10 -15 3z"/>
</g>
</svg>
